<?xml version="1.0" encoding="UTF-8" standalone="no"?>
<!-- Created with Inkscape (http://www.inkscape.org/) -->

<svg
   width="64"
   height="64"
   viewBox="0 0 16.93312 16.93312"
   version="1.1"
   id="svg5"
   inkscape:version="1.1.1 (1:1.1+202109281949+c3084ef5ed)"
   sodipodi:docname="missile.svg"
   xmlns:inkscape="http://www.inkscape.org/namespaces/inkscape"
   xmlns:sodipodi="http://sodipodi.sourceforge.net/DTD/sodipodi-0.dtd"
   xmlns="http://www.w3.org/2000/svg"
   xmlns:svg="http://www.w3.org/2000/svg">
  <sodipodi:namedview
     id="namedview7"
     pagecolor="#ffffff"
     bordercolor="#666666"
     borderopacity="1.0"
     inkscape:pageshadow="2"
     inkscape:pageopacity="0.0"
     inkscape:pagecheckerboard="0"
     inkscape:document-units="px"
     showgrid="false"
     units="px"
     width="64px"
     inkscape:zoom="7.9824498"
     inkscape:cx="-6.4764713"
     inkscape:cy="31.000345"
     inkscape:window-width="1920"
     inkscape:window-height="964"
     inkscape:window-x="0"
     inkscape:window-y="27"
     inkscape:window-maximized="1"
     inkscape:current-layer="layer1" />
  <defs
     id="defs2" />
  <g
     inkscape:label="Layer 1"
     inkscape:groupmode="layer"
     id="layer1">
    <g
       id="g1128"
       transform="matrix(0.91554905,0,0,0.91425806,0.68848686,0.68773729)">
      <rect
         style="fill:none;stroke:#000000;stroke-width:0.679984;stroke-opacity:1"
         id="rect888"
         width="14.738399"
         height="14.774388"
         x="1.1103599"
         y="1.1070528" />
      <rect
         style="fill:none;stroke:#e6e6e6;stroke-width:0.745916;stroke-opacity:1"
         id="rect988"
         width="16.187204"
         height="16.187204"
         x="0.372958"
         y="0.372958" />
      <rect
         style="fill:none;stroke:#000000;stroke-width:0.814427;stroke-opacity:1"
         id="rect1123"
         width="17.679537"
         height="17.668329"
         x="-0.34477991"
         y="-0.3450219" />
    </g>
    <path
       style="fill:none;stroke:#000000;stroke-width:0.26458px;stroke-linecap:butt;stroke-linejoin:miter;stroke-opacity:1"
       d="M 6.1938288,13.162625 C 5.5445288,9.6250909 6.438893,5.3170367 7.9564078,3.3967929"
       id="path1383"
       sodipodi:nodetypes="cc" />
    <path
       style="fill:none;stroke:#000000;stroke-width:0.26458px;stroke-linecap:round;stroke-linejoin:round;stroke-opacity:1"
       d="M 7.9564078,3.3967929 C 8.3653833,3.5596825 10.167414,7.3554243 9.6126176,13.228695"
       id="path1385"
       sodipodi:nodetypes="cc" />
    <path
       style="fill:#ffffff;fill-opacity:1;stroke:#000000;stroke-width:0.26458px;stroke-linecap:round;stroke-linejoin:miter;stroke-opacity:1"
       d="m 6.1938288,13.162625 3.4187888,0.06607"
       id="path1387"
       sodipodi:nodetypes="cc" />
    <path
       style="fill:#ffffff;fill-opacity:1;stroke:#e6e6e6;stroke-width:0.125275;stroke-linecap:round;stroke-linejoin:round;stroke-miterlimit:4;stroke-dasharray:none;stroke-opacity:1"
       d="m 29.597239,49.345943 c -3.147097,-0.0644 -5.729945,-0.125957 -5.739662,-0.136786 -0.04522,-0.05039 -0.35655,-2.40597 -0.466256,-3.527744 -1.006161,-10.288272 1.105574,-22.279849 5.216714,-29.62333 0.454132,-0.811188 1.47771,-2.464224 1.542136,-2.464172 0.08907,7.1e-5 0.719635,1.128524 1.15937,2.027873 2.122929,4.341823 3.79979,11.070905 4.488484,18.011855 0.25706,2.590762 0.325152,3.950318 0.356089,7.109878 0.03099,3.164783 -0.02384,5.115631 -0.21035,7.48476 -0.05017,0.637296 -0.09143,1.17986 -0.09167,1.205697 -2.71e-4,0.02584 -0.120243,0.04295 -0.266654,0.03802 -0.146411,-0.0049 -2.8411,-0.06165 -5.988198,-0.126052 z"
       id="path4130"
       transform="scale(0.26458)"
       sodipodi:nodetypes="sssssssssccss" />
    <path
       style="fill:#ffffff;stroke:#000000;stroke-width:0.26458px;stroke-linecap:butt;stroke-linejoin:miter;stroke-opacity:1;fill-opacity:1"
       d="m 6.1938289,13.162625 -1.7890854,1.269 7.2270695,0.03702 -2.0191954,-1.239949 z"
       id="path4312" />
  </g>
</svg>
